<mxfile host="app.diagrams.net" modified="2023-05-25T14:56:20.837Z" agent="Mozilla/5.0 (Windows NT 10.0; Win64; x64) AppleWebKit/537.36 (KHTML, like Gecko) Chrome/113.0.0.0 Safari/537.36" etag="j1KrDSBcik74FtmkUiBL" version="21.3.3" type="github">
  <diagram name="Page-1" id="E9xdRc76zqNghz4BqSpp">
    <mxGraphModel dx="2393" dy="1298" grid="0" gridSize="10" guides="1" tooltips="1" connect="1" arrows="1" fold="1" page="1" pageScale="1" pageWidth="850" pageHeight="1100" background="none" math="0" shadow="0">
      <root>
        <mxCell id="0" />
        <mxCell id="1" parent="0" />
        <mxCell id="cyzbxc-1JioGg2fqTE1t-6" style="edgeStyle=orthogonalEdgeStyle;rounded=0;orthogonalLoop=1;jettySize=auto;html=1;exitX=0.5;exitY=1;exitDx=0;exitDy=0;exitPerimeter=0;entryX=0.5;entryY=0;entryDx=0;entryDy=0;endArrow=none;endFill=0;" parent="1" source="cyzbxc-1JioGg2fqTE1t-1" target="cyzbxc-1JioGg2fqTE1t-3" edge="1">
          <mxGeometry relative="1" as="geometry" />
        </mxCell>
        <mxCell id="cyzbxc-1JioGg2fqTE1t-1" value="Начало" style="strokeWidth=1;html=1;shape=mxgraph.flowchart.terminator;whiteSpace=wrap;fontSize=16;" parent="1" vertex="1">
          <mxGeometry x="305" y="142" width="120" height="60" as="geometry" />
        </mxCell>
        <mxCell id="cyzbxc-1JioGg2fqTE1t-9" style="edgeStyle=orthogonalEdgeStyle;rounded=0;orthogonalLoop=1;jettySize=auto;html=1;exitX=0.5;exitY=1;exitDx=0;exitDy=0;entryX=0.5;entryY=0;entryDx=0;entryDy=0;entryPerimeter=0;endArrow=none;endFill=0;" parent="1" source="cyzbxc-1JioGg2fqTE1t-3" target="cyzbxc-1JioGg2fqTE1t-8" edge="1">
          <mxGeometry relative="1" as="geometry" />
        </mxCell>
        <mxCell id="cyzbxc-1JioGg2fqTE1t-3" value="&lt;span style=&quot;font-size: 16px;&quot;&gt;search&lt;/span&gt;" style="shape=parallelogram;perimeter=parallelogramPerimeter;whiteSpace=wrap;html=1;fixedSize=1;align=center;" parent="1" vertex="1">
          <mxGeometry x="305" y="235" width="120" height="60" as="geometry" />
        </mxCell>
        <mxCell id="cyzbxc-1JioGg2fqTE1t-5" style="edgeStyle=orthogonalEdgeStyle;rounded=0;orthogonalLoop=1;jettySize=auto;html=1;dashed=1;endArrow=none;endFill=0;" parent="1" source="cyzbxc-1JioGg2fqTE1t-4" target="cyzbxc-1JioGg2fqTE1t-3" edge="1">
          <mxGeometry relative="1" as="geometry" />
        </mxCell>
        <mxCell id="cyzbxc-1JioGg2fqTE1t-4" value="" style="strokeWidth=1;html=1;shape=mxgraph.flowchart.annotation_2;align=left;labelPosition=right;pointerEvents=1;spacing=1;" parent="1" vertex="1">
          <mxGeometry x="479" y="150" width="50" height="100" as="geometry" />
        </mxCell>
        <mxCell id="cyzbxc-1JioGg2fqTE1t-7" value="&lt;font style=&quot;font-size: 16px;&quot;&gt;Ввод &lt;br&gt;поискового &lt;br&gt;запроса&lt;/font&gt;" style="text;html=1;align=left;verticalAlign=middle;resizable=0;points=[];autosize=1;strokeColor=none;fillColor=none;" parent="1" vertex="1">
          <mxGeometry x="516" y="165" width="100" height="70" as="geometry" />
        </mxCell>
        <mxCell id="cyzbxc-1JioGg2fqTE1t-12" style="edgeStyle=orthogonalEdgeStyle;rounded=0;orthogonalLoop=1;jettySize=auto;html=1;exitX=0.5;exitY=1;exitDx=0;exitDy=0;exitPerimeter=0;entryX=0.5;entryY=0;entryDx=0;entryDy=0;endArrow=none;endFill=0;" parent="1" source="cyzbxc-1JioGg2fqTE1t-8" target="cyzbxc-1JioGg2fqTE1t-10" edge="1">
          <mxGeometry relative="1" as="geometry" />
        </mxCell>
        <mxCell id="c1Twwy1D4Yc-hKS2rIEJ-19" style="edgeStyle=orthogonalEdgeStyle;rounded=0;orthogonalLoop=1;jettySize=auto;html=1;exitX=1;exitY=0.5;exitDx=0;exitDy=0;exitPerimeter=0;endArrow=none;endFill=0;" edge="1" parent="1" source="cyzbxc-1JioGg2fqTE1t-8" target="c1Twwy1D4Yc-hKS2rIEJ-35">
          <mxGeometry relative="1" as="geometry">
            <mxPoint x="569" y="476.5" as="targetPoint" />
          </mxGeometry>
        </mxCell>
        <mxCell id="cyzbxc-1JioGg2fqTE1t-8" value="!search" style="strokeWidth=1;html=1;shape=mxgraph.flowchart.decision;whiteSpace=wrap;spacing=1;fontSize=16;" parent="1" vertex="1">
          <mxGeometry x="315" y="339" width="100" height="100" as="geometry" />
        </mxCell>
        <mxCell id="cyzbxc-1JioGg2fqTE1t-11" style="edgeStyle=orthogonalEdgeStyle;rounded=0;orthogonalLoop=1;jettySize=auto;html=1;exitX=0.5;exitY=1;exitDx=0;exitDy=0;entryX=0;entryY=0.5;entryDx=0;entryDy=0;" parent="1" source="cyzbxc-1JioGg2fqTE1t-10" target="cyzbxc-1JioGg2fqTE1t-3" edge="1">
          <mxGeometry relative="1" as="geometry">
            <mxPoint x="268" y="247" as="targetPoint" />
            <Array as="points">
              <mxPoint x="366" y="577" />
              <mxPoint x="255" y="577" />
              <mxPoint x="255" y="265" />
            </Array>
          </mxGeometry>
        </mxCell>
        <mxCell id="cyzbxc-1JioGg2fqTE1t-10" value="&lt;span style=&quot;font-size: 16px;&quot;&gt;Уведомление&lt;br&gt;&quot;Заполните &lt;br&gt;поиск&quot;&lt;br&gt;&lt;/span&gt;" style="shape=parallelogram;perimeter=parallelogramPerimeter;whiteSpace=wrap;html=1;fixedSize=1;align=center;" parent="1" vertex="1">
          <mxGeometry x="288" y="480" width="155" height="73" as="geometry" />
        </mxCell>
        <mxCell id="cyzbxc-1JioGg2fqTE1t-13" value="Да" style="text;html=1;align=center;verticalAlign=middle;resizable=0;points=[];autosize=1;strokeColor=none;fillColor=none;" parent="1" vertex="1">
          <mxGeometry x="365" y="447" width="33" height="26" as="geometry" />
        </mxCell>
        <mxCell id="c1Twwy1D4Yc-hKS2rIEJ-1" value="data = axios.get&lt;br&gt;(`/services/${search}`&lt;span style=&quot;background-color: initial;&quot;&gt;)&lt;/span&gt;" style="rounded=0;whiteSpace=wrap;html=1;" vertex="1" parent="1">
          <mxGeometry x="1218" y="185" width="169" height="75" as="geometry" />
        </mxCell>
        <mxCell id="c1Twwy1D4Yc-hKS2rIEJ-7" value="" style="group" vertex="1" connectable="0" parent="1">
          <mxGeometry x="103" y="58.5" width="682" height="663.5" as="geometry" />
        </mxCell>
        <mxCell id="c1Twwy1D4Yc-hKS2rIEJ-8" value="" style="group" vertex="1" connectable="0" parent="c1Twwy1D4Yc-hKS2rIEJ-7">
          <mxGeometry y="-0.5" width="682" height="664" as="geometry" />
        </mxCell>
        <mxCell id="c1Twwy1D4Yc-hKS2rIEJ-4" value="Клиент" style="swimlane;horizontal=0;whiteSpace=wrap;html=1;" vertex="1" parent="c1Twwy1D4Yc-hKS2rIEJ-8">
          <mxGeometry y="60" width="682" height="604" as="geometry" />
        </mxCell>
        <mxCell id="c1Twwy1D4Yc-hKS2rIEJ-26" value="Нет" style="text;html=1;align=center;verticalAlign=middle;resizable=0;points=[];autosize=1;strokeColor=none;fillColor=none;" vertex="1" parent="c1Twwy1D4Yc-hKS2rIEJ-4">
          <mxGeometry x="322.5" y="238" width="38" height="26" as="geometry" />
        </mxCell>
        <mxCell id="c1Twwy1D4Yc-hKS2rIEJ-34" value="1" style="ellipse;whiteSpace=wrap;html=1;aspect=fixed;" vertex="1" parent="c1Twwy1D4Yc-hKS2rIEJ-4">
          <mxGeometry x="426" y="507" width="80" height="80" as="geometry" />
        </mxCell>
        <mxCell id="c1Twwy1D4Yc-hKS2rIEJ-36" style="edgeStyle=orthogonalEdgeStyle;rounded=0;orthogonalLoop=1;jettySize=auto;html=1;exitX=0.5;exitY=1;exitDx=0;exitDy=0;entryX=0.5;entryY=0;entryDx=0;entryDy=0;endArrow=none;endFill=0;" edge="1" parent="c1Twwy1D4Yc-hKS2rIEJ-4" source="c1Twwy1D4Yc-hKS2rIEJ-35" target="c1Twwy1D4Yc-hKS2rIEJ-34">
          <mxGeometry relative="1" as="geometry" />
        </mxCell>
        <mxCell id="c1Twwy1D4Yc-hKS2rIEJ-35" value="&lt;font style=&quot;font-size: 15px;&quot;&gt;data = axios.get&lt;br style=&quot;border-color: var(--border-color);&quot;&gt;(`/services/${search}`)&lt;/font&gt;" style="rounded=0;whiteSpace=wrap;html=1;" vertex="1" parent="c1Twwy1D4Yc-hKS2rIEJ-4">
          <mxGeometry x="381.5" y="362" width="169" height="75" as="geometry" />
        </mxCell>
        <mxCell id="c1Twwy1D4Yc-hKS2rIEJ-5" value="Алгоритм сортировки по названию" style="rounded=0;whiteSpace=wrap;html=1;" vertex="1" parent="c1Twwy1D4Yc-hKS2rIEJ-8">
          <mxGeometry width="682" height="60" as="geometry" />
        </mxCell>
        <mxCell id="c1Twwy1D4Yc-hKS2rIEJ-10" value="Сервер" style="swimlane;horizontal=0;whiteSpace=wrap;html=1;" vertex="1" parent="1">
          <mxGeometry x="103" y="722" width="682" height="918" as="geometry" />
        </mxCell>
        <mxCell id="c1Twwy1D4Yc-hKS2rIEJ-21" style="edgeStyle=orthogonalEdgeStyle;rounded=0;orthogonalLoop=1;jettySize=auto;html=1;exitX=0.5;exitY=1;exitDx=0;exitDy=0;endArrow=none;endFill=0;" edge="1" parent="c1Twwy1D4Yc-hKS2rIEJ-10" source="cyzbxc-1JioGg2fqTE1t-14" target="c1Twwy1D4Yc-hKS2rIEJ-2">
          <mxGeometry relative="1" as="geometry" />
        </mxCell>
        <mxCell id="cyzbxc-1JioGg2fqTE1t-14" value="&lt;font style=&quot;font-size: 17px;&quot;&gt;regex = new RegExp(search, &#39;i&#39;)&lt;/font&gt;" style="rounded=0;whiteSpace=wrap;html=1;" parent="c1Twwy1D4Yc-hKS2rIEJ-10" vertex="1">
          <mxGeometry x="170" y="160" width="169" height="75" as="geometry" />
        </mxCell>
        <mxCell id="c1Twwy1D4Yc-hKS2rIEJ-22" style="edgeStyle=orthogonalEdgeStyle;rounded=0;orthogonalLoop=1;jettySize=auto;html=1;exitX=0.5;exitY=1;exitDx=0;exitDy=0;endArrow=none;endFill=0;" edge="1" parent="c1Twwy1D4Yc-hKS2rIEJ-10" source="c1Twwy1D4Yc-hKS2rIEJ-2" target="c1Twwy1D4Yc-hKS2rIEJ-11">
          <mxGeometry relative="1" as="geometry" />
        </mxCell>
        <mxCell id="c1Twwy1D4Yc-hKS2rIEJ-2" value="&lt;font style=&quot;font-size: 18px;&quot;&gt;sortedServices = await Service.find({title: {$regex: regex}})&lt;/font&gt;" style="rounded=0;whiteSpace=wrap;html=1;" vertex="1" parent="c1Twwy1D4Yc-hKS2rIEJ-10">
          <mxGeometry x="155.01" y="281" width="199" height="100" as="geometry" />
        </mxCell>
        <mxCell id="c1Twwy1D4Yc-hKS2rIEJ-23" style="edgeStyle=orthogonalEdgeStyle;rounded=0;orthogonalLoop=1;jettySize=auto;html=1;exitX=0.5;exitY=1;exitDx=0;exitDy=0;exitPerimeter=0;entryX=0.5;entryY=0;entryDx=0;entryDy=0;endArrow=none;endFill=0;" edge="1" parent="c1Twwy1D4Yc-hKS2rIEJ-10" source="c1Twwy1D4Yc-hKS2rIEJ-11" target="c1Twwy1D4Yc-hKS2rIEJ-12">
          <mxGeometry relative="1" as="geometry" />
        </mxCell>
        <mxCell id="c1Twwy1D4Yc-hKS2rIEJ-24" style="edgeStyle=orthogonalEdgeStyle;rounded=0;orthogonalLoop=1;jettySize=auto;html=1;exitX=1;exitY=0.5;exitDx=0;exitDy=0;exitPerimeter=0;endArrow=none;endFill=0;" edge="1" parent="c1Twwy1D4Yc-hKS2rIEJ-10" source="c1Twwy1D4Yc-hKS2rIEJ-11" target="c1Twwy1D4Yc-hKS2rIEJ-15">
          <mxGeometry relative="1" as="geometry" />
        </mxCell>
        <mxCell id="c1Twwy1D4Yc-hKS2rIEJ-11" value="sortedServices.length &lt;br&gt;== 0?" style="strokeWidth=1;html=1;shape=mxgraph.flowchart.decision;whiteSpace=wrap;spacing=1;fontSize=16;" vertex="1" parent="c1Twwy1D4Yc-hKS2rIEJ-10">
          <mxGeometry x="138.39" y="430" width="232.25" height="100" as="geometry" />
        </mxCell>
        <mxCell id="c1Twwy1D4Yc-hKS2rIEJ-28" style="edgeStyle=orthogonalEdgeStyle;rounded=0;orthogonalLoop=1;jettySize=auto;html=1;exitX=0.5;exitY=1;exitDx=0;exitDy=0;entryX=0.5;entryY=0;entryDx=0;entryDy=0;endArrow=none;endFill=0;" edge="1" parent="c1Twwy1D4Yc-hKS2rIEJ-10" source="c1Twwy1D4Yc-hKS2rIEJ-12" target="c1Twwy1D4Yc-hKS2rIEJ-17">
          <mxGeometry relative="1" as="geometry" />
        </mxCell>
        <mxCell id="c1Twwy1D4Yc-hKS2rIEJ-12" value="&lt;font style=&quot;font-size: 17px;&quot;&gt;res.json({&lt;br&gt;message: `По запросу &quot;&lt;span style=&quot;font-family: Consolas, &amp;quot;Courier New&amp;quot;, monospace; font-size: 14px;&quot;&gt;${&lt;/span&gt;&lt;span style=&quot;font-family: Consolas, &amp;quot;Courier New&amp;quot;, monospace; font-size: 14px;&quot;&gt;search&lt;/span&gt;&lt;span style=&quot;font-family: Consolas, &amp;quot;Courier New&amp;quot;, monospace; font-size: 14px;&quot;&gt;}&lt;/span&gt;&lt;span style=&quot;font-family: Consolas, &amp;quot;Courier New&amp;quot;, monospace; font-size: 14px;&quot;&gt;&quot; ничего не нашлось`&lt;/span&gt;&lt;br&gt;&lt;/font&gt;&lt;span style=&quot;font-size: 17px; background-color: initial;&quot;&gt;})&lt;/span&gt;" style="rounded=0;whiteSpace=wrap;html=1;strokeColor=#000000;fontColor=#000000;" vertex="1" parent="c1Twwy1D4Yc-hKS2rIEJ-10">
          <mxGeometry x="138.26" y="586" width="232.38" height="102" as="geometry" />
        </mxCell>
        <mxCell id="c1Twwy1D4Yc-hKS2rIEJ-20" style="edgeStyle=orthogonalEdgeStyle;rounded=0;orthogonalLoop=1;jettySize=auto;html=1;exitX=0.5;exitY=1;exitDx=0;exitDy=0;entryX=0.5;entryY=0;entryDx=0;entryDy=0;endArrow=none;endFill=0;" edge="1" parent="c1Twwy1D4Yc-hKS2rIEJ-10" source="c1Twwy1D4Yc-hKS2rIEJ-14" target="cyzbxc-1JioGg2fqTE1t-14">
          <mxGeometry relative="1" as="geometry" />
        </mxCell>
        <mxCell id="c1Twwy1D4Yc-hKS2rIEJ-14" value="1" style="ellipse;whiteSpace=wrap;html=1;aspect=fixed;" vertex="1" parent="c1Twwy1D4Yc-hKS2rIEJ-10">
          <mxGeometry x="212" y="41" width="80" height="80" as="geometry" />
        </mxCell>
        <mxCell id="c1Twwy1D4Yc-hKS2rIEJ-29" style="edgeStyle=orthogonalEdgeStyle;rounded=0;orthogonalLoop=1;jettySize=auto;html=1;exitX=0.5;exitY=1;exitDx=0;exitDy=0;endArrow=none;endFill=0;" edge="1" parent="c1Twwy1D4Yc-hKS2rIEJ-10" source="c1Twwy1D4Yc-hKS2rIEJ-15" target="c1Twwy1D4Yc-hKS2rIEJ-17">
          <mxGeometry relative="1" as="geometry" />
        </mxCell>
        <mxCell id="c1Twwy1D4Yc-hKS2rIEJ-15" value="&lt;div style=&quot;font-family: Consolas, &amp;quot;Courier New&amp;quot;, monospace; font-size: 14px; line-height: 19px;&quot;&gt;res.&lt;span style=&quot;&quot;&gt;json&lt;/span&gt;({&lt;span style=&quot;&quot;&gt;sortedServices&lt;/span&gt;})&lt;/div&gt;" style="rounded=0;whiteSpace=wrap;html=1;strokeColor=#000000;fontColor=#000000;labelBackgroundColor=default;" vertex="1" parent="c1Twwy1D4Yc-hKS2rIEJ-10">
          <mxGeometry x="418" y="586" width="232.38" height="102" as="geometry" />
        </mxCell>
        <mxCell id="c1Twwy1D4Yc-hKS2rIEJ-17" value="2" style="ellipse;whiteSpace=wrap;html=1;aspect=fixed;" vertex="1" parent="c1Twwy1D4Yc-hKS2rIEJ-10">
          <mxGeometry x="354.01" y="787" width="80" height="80" as="geometry" />
        </mxCell>
        <mxCell id="c1Twwy1D4Yc-hKS2rIEJ-27" value="Нет" style="text;html=1;align=center;verticalAlign=middle;resizable=0;points=[];autosize=1;strokeColor=none;fillColor=none;" vertex="1" parent="c1Twwy1D4Yc-hKS2rIEJ-10">
          <mxGeometry x="425" y="441" width="38" height="26" as="geometry" />
        </mxCell>
        <mxCell id="c1Twwy1D4Yc-hKS2rIEJ-25" value="Да" style="text;html=1;align=center;verticalAlign=middle;resizable=0;points=[];autosize=1;strokeColor=none;fillColor=none;" vertex="1" parent="1">
          <mxGeometry x="327" y="1262" width="33" height="26" as="geometry" />
        </mxCell>
        <mxCell id="c1Twwy1D4Yc-hKS2rIEJ-30" value="Клиент" style="swimlane;horizontal=0;whiteSpace=wrap;html=1;" vertex="1" parent="1">
          <mxGeometry x="103" y="1640" width="682" height="474.5" as="geometry" />
        </mxCell>
        <mxCell id="c1Twwy1D4Yc-hKS2rIEJ-18" value="2" style="ellipse;whiteSpace=wrap;html=1;aspect=fixed;" vertex="1" parent="c1Twwy1D4Yc-hKS2rIEJ-30">
          <mxGeometry x="301.5" y="54" width="80" height="80" as="geometry" />
        </mxCell>
        <mxCell id="c1Twwy1D4Yc-hKS2rIEJ-33" value="data." style="strokeWidth=1;html=1;shape=mxgraph.flowchart.decision;whiteSpace=wrap;spacing=1;fontSize=16;" vertex="1" parent="c1Twwy1D4Yc-hKS2rIEJ-30">
          <mxGeometry x="224.88" y="180" width="232.25" height="100" as="geometry" />
        </mxCell>
      </root>
    </mxGraphModel>
  </diagram>
</mxfile>
